<?xml version="1.0" standalone="no"?>
<!DOCTYPE svg PUBLIC "-//W3C//DTD SVG 20010904//EN"
 "http://www.w3.org/TR/2001/REC-SVG-20010904/DTD/svg10.dtd">
<svg version="1.0" xmlns="http://www.w3.org/2000/svg"
 width="224.000000pt" height="224.000000pt" viewBox="0 0 224.000000 224.000000"
 preserveAspectRatio="xMidYMid meet">

<g transform="translate(0.000000,224.000000) scale(0.100000,-0.100000)"
fill="#000000" stroke="none">
<path d="M388 1371 c-38 -81 -68 -151 -68 -155 0 -3 10 -6 23 -6 20 0 31 17
82 130 33 71 61 128 63 126 2 -3 17 -32 32 -65 l29 -61 -44 0 c-25 0 -45 -4
-45 -9 0 -5 -3 -16 -6 -25 -5 -14 3 -16 55 -16 l61 0 20 -40 c15 -30 26 -40
45 -40 l24 0 -33 73 c-118 257 -106 237 -140 237 -30 0 -33 -4 -98 -149z"/>
<path d="M745 1495 c-24 -24 -31 -57 -19 -90 8 -19 50 -42 114 -61 26 -8 51
-21 54 -30 18 -47 -56 -78 -124 -51 -36 14 -60 9 -60 -14 0 -15 71 -39 115
-39 75 0 125 38 125 95 0 29 -47 66 -110 88 -57 19 -65 25 -65 47 0 34 41 48
98 33 34 -10 45 -9 56 2 21 20 -35 45 -104 45 -46 0 -60 -4 -80 -25z"/>
<path d="M1050 1492 c-16 -17 -30 -39 -30 -50 0 -34 39 -71 90 -86 68 -20 90
-34 90 -56 0 -23 -36 -50 -68 -50 -12 0 -38 6 -56 14 -33 14 -56 7 -56 -16 0
-21 65 -40 123 -36 50 4 64 9 84 32 49 57 22 116 -65 142 -31 10 -66 26 -76
35 -19 18 -19 19 -1 39 20 22 73 27 106 9 15 -8 24 -7 35 2 27 22 -8 43 -81
47 -61 4 -66 3 -95 -26z"/>
<path d="M1340 1365 l0 -155 116 0 c102 0 115 2 110 16 -3 9 -6 18 -6 20 0 2
-41 4 -90 4 l-91 0 3 113 3 112 85 3 c78 3 99 10 100 35 0 4 -52 7 -115 7
l-115 0 0 -155z"/>
<path d="M1640 1513 c1 -22 20 -32 65 -35 l50 -3 3 -132 c2 -124 4 -133 22
-133 18 0 20 9 22 133 l3 132 49 1 c41 1 51 4 57 22 8 22 8 22 -131 22 -77 0
-140 -3 -140 -7z"/>
<path d="M1420 1360 c0 -17 7 -20 50 -20 43 0 50 3 50 20 0 17 -7 20 -50 20
-43 0 -50 -3 -50 -20z"/>
<path d="M1025 1029 c-10 -30 19 -53 47 -38 29 15 20 53 -14 57 -20 2 -28 -2
-33 -19z"/>
<path d="M1274 1040 c-30 -12 -64 -58 -64 -87 0 -45 27 -79 92 -113 107 -56
138 -99 106 -143 -18 -24 -67 -35 -105 -25 -17 4 -45 25 -62 45 -21 25 -34 34
-41 27 -27 -27 71 -94 140 -94 59 0 116 33 129 73 23 69 -3 107 -110 158 -74
36 -109 65 -109 91 0 27 45 68 75 68 33 0 80 -24 98 -51 11 -15 17 -17 23 -8
4 8 -5 23 -25 41 -25 23 -40 28 -79 27 -26 0 -57 -4 -68 -9z"/>
<path d="M1660 1029 c-73 -42 -114 -151 -90 -239 23 -86 121 -151 203 -136 45
8 112 57 132 96 20 39 11 38 -26 -4 -95 -109 -258 -36 -259 117 l0 37 145 0
c163 0 163 0 124 70 -43 75 -152 104 -229 59z m114 -3 c30 -12 66 -64 66 -95
0 -7 -37 -11 -110 -11 -102 0 -110 1 -110 19 0 24 46 80 74 91 30 12 42 12 80
-4z"/>
<path d="M320 1034 c0 -12 173 -384 179 -384 3 0 33 59 65 131 32 71 62 126
66 122 4 -4 31 -63 60 -130 29 -68 56 -123 59 -123 3 0 47 88 98 195 l91 195
-28 0 c-24 0 -31 -8 -58 -67 -16 -38 -47 -104 -68 -147 l-38 -80 -12 29 c-10
26 -6 39 44 142 30 62 52 116 49 120 -4 3 -29 -42 -57 -100 -27 -59 -52 -107
-55 -107 -3 0 -18 30 -35 67 -29 65 -30 68 -15 105 14 37 14 38 -6 38 -16 0
-33 -27 -86 -140 -37 -77 -70 -140 -75 -140 -4 0 -10 10 -13 23 -4 16 11 60
49 140 30 64 51 117 47 117 -4 0 -30 -47 -57 -105 -27 -57 -52 -104 -55 -105
-3 0 -28 47 -54 105 -41 90 -52 105 -72 105 -12 0 -23 -3 -23 -6z"/>
<path d="M1030 795 l0 -145 35 0 c32 0 35 2 25 19 -5 11 -10 76 -10 145 l0
126 -25 0 -25 0 0 -145z"/>
</g>
</svg>
