<?xml version="1.0" standalone="no"?>
<!DOCTYPE svg PUBLIC "-//W3C//DTD SVG 20010904//EN"
 "http://www.w3.org/TR/2001/REC-SVG-20010904/DTD/svg10.dtd">
<svg version="1.0" xmlns="http://www.w3.org/2000/svg"
 width="720.000000pt" height="720.000000pt" viewBox="0 0 720.000000 720.000000"
 preserveAspectRatio="xMidYMid meet">

<g transform="translate(0.000000,720.000000) scale(0.100000,-0.100000)"
fill="#000000" stroke="none">
<path d="M2371 5155 c-176 -40 -274 -146 -273 -295 1 -163 100 -250 367 -320
207 -54 255 -87 255 -177 0 -55 -30 -97 -92 -127 -107 -52 -256 -44 -390 22
l-75 37 -53 -54 -53 -55 34 -29 c46 -38 162 -93 227 -106 73 -15 256 -14 317
3 174 46 275 161 275 312 0 94 -32 160 -104 214 -69 52 -136 81 -290 124 -198
55 -242 88 -232 171 9 76 96 125 219 125 66 0 175 -27 225 -55 l46 -26 55 55
55 55 -25 20 c-35 30 -137 78 -205 96 -84 23 -207 28 -283 10z"/>
<path d="M3444 5155 c-158 -34 -258 -133 -270 -266 -17 -179 68 -262 352 -344
87 -26 177 -56 198 -68 48 -27 79 -80 72 -125 -22 -148 -276 -198 -484 -95
l-73 36 -50 -49 c-27 -26 -49 -53 -49 -60 0 -19 111 -86 185 -113 98 -34 288
-44 379 -20 73 20 164 69 200 109 62 69 80 115 81 205 0 74 -3 85 -33 136 -58
95 -138 139 -369 204 -152 43 -197 66 -219 114 -15 31 -15 40 -3 75 40 114
244 141 425 57 l62 -29 53 55 54 54 -25 20 c-48 39 -166 89 -245 104 -95 18
-159 18 -241 0z"/>
<path d="M1146 5108 c-7 -18 -43 -96 -79 -173 -35 -77 -81 -175 -101 -218 -20
-43 -36 -80 -36 -82 0 -1 -22 -49 -49 -106 -27 -57 -58 -124 -69 -149 -11 -25
-50 -110 -86 -189 -36 -80 -66 -149 -66 -153 0 -4 40 -8 89 -8 102 0 93 -8
153 125 20 44 88 193 151 330 63 138 138 302 167 365 29 63 53 116 54 118 2 1
33 -64 71 -145 37 -82 85 -184 105 -228 21 -44 36 -83 33 -87 -2 -5 -68 -8
-146 -8 l-143 0 -32 -75 c-18 -41 -32 -77 -32 -80 0 -3 98 -5 218 -5 l219 0
69 -152 70 -153 92 -3 c62 -2 92 1 92 8 0 12 -9 33 -95 220 -201 439 -298 651
-346 757 l-54 122 -117 1 -118 0 -14 -32z"/>
<path d="M4282 4588 l3 -553 414 -3 c228 -1 419 2 423 6 5 5 -6 41 -24 80
l-33 71 -310 3 -310 3 -3 370 c-2 204 0 380 3 393 l5 22 305 0 306 0 34 76
c19 42 35 78 35 80 0 2 -191 4 -425 4 l-425 0 2 -552z"/>
<path d="M5350 5136 c0 -3 15 -39 34 -80 l35 -76 170 0 171 0 2 -472 3 -473
85 0 85 0 0 473 0 472 173 0 173 0 34 76 c19 42 35 78 35 80 0 2 -225 4 -500
4 -275 0 -500 -2 -500 -4z"/>
<path d="M4570 4585 l0 -85 188 2 187 3 3 83 3 82 -191 0 -190 0 0 -85z"/>
<path d="M4965 3885 c-11 -7 -49 -16 -84 -18 -35 -3 -67 -10 -71 -17 -5 -7
-24 -9 -60 -4 -39 5 -51 4 -46 -5 4 -6 18 -11 32 -11 38 0 28 -18 -13 -23 -51
-7 -180 -4 -188 5 -4 4 -18 3 -31 -2 -14 -6 -26 -6 -29 0 -4 6 -25 10 -48 10
-35 0 -92 19 -62 20 11 1 -24 30 -36 30 -4 0 -5 -9 -2 -20 5 -18 0 -20 -38
-20 -24 0 -81 -3 -125 -5 -63 -4 -84 -2 -93 9 -9 11 -31 13 -94 10 -45 -3
-136 -6 -202 -7 -82 -1 -123 -6 -130 -14 -5 -7 -23 -14 -40 -15 -16 -1 -37 -7
-45 -14 -18 -15 -61 -7 -59 10 5 29 -14 46 -50 46 l-36 -1 29 -16 c27 -14 28
-16 11 -26 -14 -8 -22 -6 -35 10 -10 12 -34 23 -61 27 -59 9 -169 16 -144 9
11 -3 27 -12 36 -19 9 -8 20 -14 25 -13 22 4 34 -2 34 -16 0 -18 9 -19 33 0
20 14 45 10 62 -11 6 -6 27 -14 48 -17 20 -3 44 -13 53 -21 8 -9 22 -16 30
-16 11 0 12 -4 4 -19 -8 -16 -5 -23 23 -43 26 -19 48 -24 115 -27 55 -2 82 1
82 8 0 6 18 11 40 11 22 0 40 4 40 9 0 6 12 6 29 1 16 -4 31 -6 34 -4 3 4 88
13 164 18 11 0 19 4 17 8 -2 3 1 8 8 11 7 2 0 2 -17 0 -25 -2 -27 -1 -10 6 27
13 87 13 105 0 12 -8 9 -9 -10 -5 -14 3 -19 3 -12 0 6 -3 10 -9 8 -13 -3 -4
11 -8 29 -9 19 -2 52 -9 75 -17 22 -8 47 -12 54 -9 8 3 17 0 21 -6 5 -8 10 -8
20 0 10 8 19 8 34 1 11 -6 31 -11 45 -11 14 0 28 -5 31 -10 4 -7 12 -7 25 0
10 5 37 10 59 10 27 0 43 5 49 17 8 13 28 17 98 19 49 2 105 6 124 10 19 4 48
8 63 10 29 4 68 21 77 35 7 10 87 15 96 6 10 -10 162 -9 182 2 16 8 207 25
282 25 145 -1 290 -8 280 -14 -18 -11 61 -21 79 -10 13 7 11 9 -11 10 -15 0
-30 4 -33 10 -3 6 1 7 9 4 17 -6 21 4 8 22 -14 22 -48 32 -95 28 -35 -3 -49 0
-53 11 -4 8 -14 15 -23 15 -14 0 -14 -2 -1 -10 10 -8 -7 -9 -59 -4 -56 5 -75
4 -81 -7 -7 -11 -13 -10 -37 1 -25 13 -219 30 -334 30 -23 0 -42 7 -54 20 -14
16 -30 20 -74 19 -31 0 -65 -6 -76 -14z m105 -15 c0 -5 -7 -10 -16 -10 -8 0
-12 5 -9 10 3 6 10 10 16 10 5 0 9 -4 9 -10z m50 -21 c0 -15 -4 -19 -16 -15
-9 3 -20 6 -26 6 -6 0 -6 6 2 15 18 22 40 18 40 -6z m37 -5 c-3 -3 -12 -4 -19
-1 -8 3 -5 6 6 6 11 1 17 -2 13 -5z m-1090 -70 c-3 -3 -12 -4 -19 -1 -8 3 -5
6 6 6 11 1 17 -2 13 -5z m-400 -18 c-1 -6 3 -10 10 -11 14 0 30 -15 16 -15 -6
0 -14 -11 -17 -25 -7 -28 -27 -33 -46 -11 -6 8 -21 16 -32 18 -29 4 -35 28 -9
35 11 3 19 9 16 13 -3 4 10 8 29 7 19 0 34 -5 33 -11z m458 4 c18 -8 17 -9 -7
-9 -15 -1 -30 4 -33 9 -7 12 12 12 40 0z m-300 -9 c3 -5 2 -12 -3 -15 -13 -8
-53 5 -46 15 7 12 41 12 49 0z m250 -1 c8 -13 -5 -13 -25 0 -13 8 -13 10 2 10
9 0 20 -4 23 -10z m-370 -60 c3 -5 -1 -10 -9 -10 -9 0 -16 5 -16 10 0 6 4 10
9 10 6 0 13 -4 16 -10z"/>
<path d="M5148 3873 c7 -3 16 -2 19 1 4 3 -2 6 -13 5 -11 0 -14 -3 -6 -6z"/>
<path d="M2961 3836 c-9 -11 -9 -15 0 -18 27 -9 -2 -23 -40 -20 -23 2 -38 8
-35 13 3 5 -4 9 -15 9 -23 0 -29 -16 -8 -23 17 -5 -9 -37 -32 -37 -14 -1 -13
-3 3 -15 16 -12 17 -17 6 -30 -12 -15 -15 -14 -27 9 -8 14 -21 26 -30 26 -15
0 -15 -2 1 -19 16 -18 15 -19 -29 -23 -52 -6 -60 -11 -49 -30 12 -18 15 -48 6
-48 -4 0 -7 -14 -8 -30 -1 -27 0 -28 12 -12 12 15 15 15 24 2 6 -10 10 -11 10
-2 0 19 20 14 20 -5 1 -17 1 -17 14 0 8 10 12 28 9 40 -3 16 -2 18 5 9 7 -11
10 -10 16 3 11 30 7 48 -10 41 -9 -3 -12 -2 -8 5 6 10 31 7 70 -8 10 -4 15 -2
11 3 -4 7 13 8 46 4 28 -4 59 -5 69 -2 23 6 23 1 -3 -42 -12 -20 -18 -36 -14
-36 3 0 -1 -7 -10 -16 -12 -12 -13 -20 -5 -28 8 -8 17 -3 34 18 22 28 25 29
102 27 71 -2 77 -1 60 12 -19 14 -19 15 3 26 13 8 20 18 17 27 -3 8 -1 14 4
14 6 0 10 5 10 10 0 6 -7 10 -16 10 -8 0 -20 13 -25 30 -9 25 -15 29 -35 24
-26 -7 -31 5 -12 24 9 9 9 15 0 24 -9 9 -17 7 -34 -12 -16 -17 -23 -20 -26
-10 -3 8 0 16 7 18 26 9 8 22 -30 22 -32 0 -40 3 -35 15 7 19 -8 20 -23 1z
m-54 -82 c-3 -3 -12 -4 -19 -1 -8 3 -5 6 6 6 11 1 17 -2 13 -5z m151 -1 c-10
-2 -18 -9 -18 -14 0 -5 -4 -9 -10 -9 -5 0 -10 7 -10 15 0 10 9 15 28 14 16 -1
20 -3 10 -6z m62 -43 c0 -5 -5 -10 -11 -10 -5 0 -7 5 -4 10 3 6 8 10 11 10 2
0 4 -4 4 -10z m-343 -26 c-3 -3 -12 -4 -19 -1 -8 3 -5 6 6 6 11 1 17 -2 13 -5z
m224 -67 c-10 -9 -11 -8 -5 6 3 10 9 15 12 12 3 -3 0 -11 -7 -18z"/>
<path d="M4283 3843 c9 -2 23 -2 30 0 6 3 -1 5 -18 5 -16 0 -22 -2 -12 -5z"/>
<path d="M3118 3815 c3 -16 11 -25 23 -25 29 0 31 16 4 34 -32 21 -33 20 -27
-9z"/>
<path d="M5915 3820 c-4 -6 6 -10 22 -10 22 0 25 2 13 10 -19 12 -27 12 -35 0z"/>
<path d="M2750 3770 c20 -13 50 -13 50 0 0 6 -15 10 -32 10 -25 0 -29 -3 -18
-10z"/>
<path d="M2510 3745 c0 -8 7 -15 15 -15 8 0 15 7 15 15 0 8 -7 15 -15 15 -8 0
-15 -7 -15 -15z"/>
<path d="M3364 3728 c-9 -14 25 -21 49 -11 21 9 20 10 -11 15 -18 2 -35 1 -38
-4z"/>
<path d="M1979 3714 c-11 -13 -9 -14 14 -9 22 6 25 4 20 -14 -4 -15 -1 -21 10
-21 9 0 19 5 22 10 4 6 34 9 70 7 65 -4 82 5 65 33 -7 11 -11 11 -25 0 -23
-19 -115 -30 -115 -14 0 11 -21 24 -40 24 -4 0 -13 -7 -21 -16z"/>
<path d="M2355 3690 c-3 -5 -1 -10 4 -10 6 0 11 5 11 10 0 6 -2 10 -4 10 -3 0
-8 -4 -11 -10z"/>
<path d="M1493 3683 c9 -2 23 -2 30 0 6 3 -1 5 -18 5 -16 0 -22 -2 -12 -5z"/>
<path d="M1630 3672 c0 -10 -6 -24 -12 -31 -11 -10 -10 -15 5 -25 9 -7 17 -18
17 -25 0 -14 17 -15 25 -1 3 6 19 10 34 10 28 0 41 19 41 60 0 12 -2 12 -9 2
-11 -17 -22 -14 -39 9 -17 25 -62 25 -62 1z"/>
<path d="M2410 3680 c0 -5 5 -10 10 -10 6 0 10 5 10 10 0 6 -4 10 -10 10 -5 0
-10 -4 -10 -10z"/>
<path d="M2563 3684 c4 -4 0 -19 -9 -32 -15 -23 -15 -25 0 -19 9 4 16 2 16 -3
0 -6 5 -10 11 -10 6 0 8 9 4 23 -7 21 -7 21 8 2 8 -10 13 -26 10 -35 -3 -10
-1 -9 7 3 16 24 4 52 -28 66 -15 7 -24 9 -19 5z"/>
<path d="M2625 3681 c-3 -5 -2 -12 3 -15 5 -3 9 1 9 9 0 17 -3 19 -12 6z"/>
<path d="M1540 3670 c0 -5 7 -10 15 -10 8 0 15 5 15 10 0 6 -7 10 -15 10 -8 0
-15 -4 -15 -10z"/>
<path d="M1778 3673 c-10 -2 -18 -13 -18 -24 0 -14 7 -19 29 -19 25 0 28 3 23
25 -2 14 -7 24 -11 24 -3 -1 -14 -3 -23 -6z"/>
<path d="M2525 3670 c-3 -5 -2 -10 4 -10 5 0 13 5 16 10 3 6 2 10 -4 10 -5 0
-13 -4 -16 -10z"/>
<path d="M3492 3658 c6 -18 28 -21 28 -4 0 9 -7 16 -16 16 -9 0 -14 -5 -12
-12z"/>
<path d="M2330 3651 c25 -14 70 -22 70 -12 0 4 -14 11 -31 15 -42 8 -57 7 -39
-3z"/>
<path d="M3210 3649 c0 -5 5 -7 10 -4 6 3 10 8 10 11 0 2 -4 4 -10 4 -5 0 -10
-5 -10 -11z"/>
<path d="M2514 3615 c5 -13 -1 -15 -32 -10 l-37 7 32 -21 c18 -11 40 -18 48
-15 8 4 22 1 30 -6 10 -8 15 -9 15 -2 0 6 -8 16 -17 21 -14 8 -15 11 -3 11 12
0 10 4 -4 15 -26 19 -40 19 -32 0z"/>
<path d="M1503 3613 c-17 -3 -23 -11 -23 -30 0 -20 4 -24 19 -20 25 6 51 -10
45 -28 -4 -10 -15 -12 -34 -9 -16 4 -31 1 -35 -5 -3 -7 -1 -10 6 -9 7 2 18 -7
24 -19 7 -14 15 -19 21 -13 5 5 45 10 88 12 89 3 118 24 32 23 -53 -1 -54 0
-50 24 10 65 10 66 -16 67 -14 1 -32 4 -40 6 -8 3 -25 3 -37 1z"/>
<path d="M1425 3579 c-4 -11 -4 -23 -1 -26 3 -4 6 1 6 11 0 9 5 14 10 11 6 -3
10 1 10 9 0 23 -18 20 -25 -5z"/>
<path d="M1230 3551 c0 -5 5 -13 10 -16 6 -3 10 -2 10 4 0 5 -4 13 -10 16 -5
3 -10 2 -10 -4z"/>
<path d="M1210 3500 c0 -5 5 -10 10 -10 6 0 10 5 10 10 0 6 -4 10 -10 10 -5 0
-10 -4 -10 -10z"/>
<path d="M1036 3413 c-6 -14 -5 -15 5 -6 7 7 10 15 7 18 -3 3 -9 -2 -12 -12z"/>
<path d="M976 3395 c4 -8 12 -15 20 -15 8 0 11 6 8 15 -4 8 -12 15 -20 15 -8
0 -11 -6 -8 -15z"/>
<path d="M1058 3393 c7 -3 16 -2 19 1 4 3 -2 6 -13 5 -11 0 -14 -3 -6 -6z"/>
<path d="M5968 3123 c7 -3 16 -2 19 1 4 3 -2 6 -13 5 -11 0 -14 -3 -6 -6z"/>
<path d="M6025 3110 c3 -5 10 -10 16 -10 5 0 9 5 9 10 0 6 -7 10 -16 10 -8 0
-12 -4 -9 -10z"/>
<path d="M5620 3100 c0 -5 9 -10 20 -10 11 0 20 5 20 10 0 6 -9 10 -20 10 -11
0 -20 -4 -20 -10z"/>
<path d="M5680 3100 c0 -5 7 -7 15 -4 8 4 15 8 15 10 0 2 -7 4 -15 4 -8 0 -15
-4 -15 -10z"/>
<path d="M5250 3093 c-59 -8 -75 -14 -59 -24 20 -12 37 -11 19 2 -11 8 1 9 44
5 32 -2 57 -4 55 -3 -2 2 -11 7 -19 13 -8 5 -26 8 -40 7z"/>
<path d="M5128 3058 c6 -6 18 -8 28 -6 14 3 12 5 -9 10 -19 3 -25 2 -19 -4z"/>
<path d="M4056 3035 c4 -8 12 -15 20 -15 20 0 17 7 -6 20 -16 9 -18 8 -14 -5z"/>
<path d="M3790 2990 c0 -5 5 -10 10 -10 6 0 10 5 10 10 0 6 -4 10 -10 10 -5 0
-10 -4 -10 -10z"/>
<path d="M6675 2990 c3 -5 1 -10 -4 -10 -6 0 -11 -9 -11 -20 0 -11 -7 -20 -15
-20 -8 0 -15 5 -15 12 0 6 -2 9 -5 6 -8 -7 5 -38 16 -38 4 0 17 10 29 22 21
23 27 58 9 58 -5 0 -7 -4 -4 -10z"/>
<path d="M3625 2970 c4 -6 11 -8 16 -5 14 9 11 15 -7 15 -8 0 -12 -5 -9 -10z"/>
<path d="M3677 2954 c6 -16 19 -18 27 -5 3 5 -3 11 -13 14 -14 3 -18 1 -14 -9z"/>
<path d="M6515 2960 c3 -5 14 -10 23 -10 15 0 15 2 2 10 -20 13 -33 13 -25 0z"/>
<path d="M3028 2953 c-10 -2 -18 -9 -18 -14 0 -6 8 -5 20 1 11 6 20 13 20 15
0 3 -1 4 -2 4 -2 -1 -11 -3 -20 -6z"/>
<path d="M5773 2942 c10 -10 14 -22 10 -27 -5 -4 3 -5 17 -2 14 4 33 7 43 7 9
0 17 5 17 11 0 8 -12 10 -34 6 -25 -4 -36 -1 -40 9 -3 8 -11 14 -17 14 -8 0
-6 -7 4 -18z"/>
<path d="M3746 2939 c3 -6 1 -15 -6 -19 -8 -5 -6 -9 8 -12 11 -3 26 -2 33 3
11 7 10 9 -3 9 -10 0 -18 7 -18 15 0 8 -5 15 -11 15 -5 0 -7 -5 -3 -11z"/>
<path d="M3788 2943 c7 -3 16 -2 19 1 4 3 -2 6 -13 5 -11 0 -14 -3 -6 -6z"/>
<path d="M6415 2940 c28 -12 37 -12 30 0 -3 6 -16 10 -28 9 -21 0 -21 -1 -2
-9z"/>
<path d="M6465 2940 c-3 -5 -2 -10 4 -10 5 0 13 5 16 10 3 6 2 10 -4 10 -5 0
-13 -4 -16 -10z"/>
<path d="M5708 2924 c-2 -13 -25 -17 -133 -21 -71 -3 -157 -5 -189 -4 -32 1
-62 -2 -65 -7 -3 -5 -19 -12 -36 -16 -23 -5 -27 -4 -15 5 12 8 7 9 -19 5 -18
-3 -47 -6 -63 -6 -23 0 -29 -4 -24 -15 4 -11 -2 -15 -24 -15 -27 0 -30 -3 -30
-34 0 -31 2 -33 26 -28 19 3 25 1 20 -6 -7 -12 -33 -12 -52 1 -6 3 -9 18 -6
33 4 23 2 25 -17 19 -12 -4 -21 -2 -21 4 0 6 5 11 10 11 6 0 10 5 10 10 0 6
-13 9 -30 8 -16 -1 -30 -4 -30 -7 0 -15 79 -96 127 -128 70 -48 144 -68 223
-60 68 8 157 39 196 70 l28 22 -29 7 c-27 6 -26 6 9 5 34 -2 43 3 76 42 45 51
85 121 71 121 -5 0 -11 -7 -13 -16z m-211 -50 c-3 -3 -12 -4 -19 -1 -8 3 -5 6
6 6 11 1 17 -2 13 -5z m123 -25 c0 -6 -4 -7 -10 -4 -5 3 -10 11 -10 16 0 6 5
7 10 4 6 -3 10 -11 10 -16z m50 12 c0 -12 -20 -25 -27 -18 -7 7 6 27 18 27 5
0 9 -4 9 -9z m-230 -15 c0 -9 -7 -12 -20 -9 -31 8 -34 23 -6 23 16 0 26 -6 26
-14z m-160 -6 c0 -5 -4 -10 -10 -10 -5 0 -10 5 -10 10 0 6 5 10 10 10 6 0 10
-4 10 -10z m-35 -20 c3 -5 15 -10 25 -10 29 0 14 -25 -16 -28 -14 -1 -23 2
-19 7 3 5 -4 12 -15 16 -11 3 -20 11 -20 16 0 12 37 12 45 -1z m359 -16 c6
-16 -12 -18 -33 -5 -17 11 -5 32 14 25 7 -3 16 -12 19 -20z m-221 -1 c-17 -3
-23 -11 -23 -31 0 -20 -3 -23 -9 -13 -14 22 6 51 32 50 l22 -2 -22 -4z m79 -8
c0 -5 -5 -11 -11 -13 -6 -2 -11 4 -11 13 0 9 5 15 11 13 6 -2 11 -8 11 -13z
m63 5 c3 -6 -1 -7 -9 -4 -18 7 -21 14 -7 14 6 0 13 -4 16 -10z m-110 -30 c-3
-5 -13 -10 -21 -10 -8 0 -14 5 -14 10 0 6 9 10 21 10 11 0 17 -4 14 -10z
m-188 -66 c-3 -3 -12 -4 -19 -1 -8 3 -5 6 6 6 11 1 17 -2 13 -5z"/>
<path d="M5920 2932 c0 -5 -10 -14 -22 -19 l-23 -11 28 -11 c40 -15 33 -20
-15 -9 -62 13 -104 16 -114 9 -5 -3 -20 -28 -34 -55 -35 -70 -145 -177 -230
-224 -47 -26 -102 -46 -156 -57 -110 -24 -204 -9 -316 48 -106 54 -168 109
-219 195 -34 58 -45 70 -50 55 -6 -13 -8 -14 -8 -3 -1 13 -2 13 -11 0 -9 -13
-11 -13 -20 0 -6 10 -10 11 -10 3 0 -7 -10 -13 -22 -13 -12 0 -35 -4 -52 -10
-17 -5 -43 -12 -58 -15 -17 -3 -28 -12 -29 -23 0 -10 -3 -12 -6 -4 -2 6 -8 10
-13 7 -4 -3 -6 5 -3 17 10 40 -13 6 -25 -38 -15 -53 -15 -54 4 -54 15 0 44
-23 44 -34 0 -3 -12 -6 -26 -6 -22 0 -25 2 -14 15 11 13 8 15 -14 15 -14 0
-26 -4 -26 -9 0 -22 -57 -74 -109 -100 -81 -41 -153 -56 -261 -55 -77 1 -109
6 -170 28 -41 15 -83 28 -92 29 -9 1 -16 4 -15 7 1 3 -31 37 -72 77 -42 42
-71 64 -68 53 4 -17 0 -20 -24 -20 -16 0 -29 5 -29 10 0 14 -51 12 -83 -2 -15
-7 -27 -19 -27 -26 0 -10 -3 -10 -13 0 -12 10 -11 16 4 32 11 11 16 22 13 25
-3 3 -9 0 -13 -8 -6 -8 -19 -10 -43 -6 -23 5 -38 3 -43 -5 -6 -9 -10 -9 -16 1
-5 9 -9 -14 -9 -57 0 -49 4 -75 14 -83 7 -6 14 -22 14 -36 0 -23 -2 -24 -102
-27 -55 -2 -102 -3 -103 -3 -1 1 -3 49 -4 108 -1 59 -6 107 -11 107 -4 0 -9
-15 -9 -32 -1 -24 -3 -27 -6 -10 -4 21 -6 21 -26 7 -24 -17 -107 -21 -107 -5
0 6 -7 10 -15 10 -19 0 -19 -27 0 -37 10 -6 -8 -9 -47 -9 -66 -1 -142 -20
-213 -54 -23 -11 -61 -20 -85 -20 -34 0 -41 -3 -32 -12 19 -19 14 -28 -13 -28
-14 0 -25 5 -25 11 0 8 -4 8 -12 2 -7 -6 -21 -13 -31 -16 -14 -5 -16 -2 -11
18 7 28 2 30 -28 14 -18 -10 -19 -8 -13 13 l7 23 -17 -23 c-18 -24 -11 -47 11
-38 8 3 14 1 14 -4 0 -6 -18 -10 -39 -10 -22 0 -43 -5 -46 -10 -4 -6 -12 -10
-18 -9 -28 3 -39 -2 -33 -16 3 -8 1 -15 -4 -15 -10 0 -14 20 -12 52 2 16 0 16
-17 -1 -21 -21 -98 -36 -115 -22 -7 6 -17 6 -26 1 -10 -7 -11 -10 -2 -10 6 0
12 -4 12 -10 0 -17 -18 -11 -40 12 l-21 22 -24 -28 c-27 -31 -51 -29 -137 15
-23 12 -38 11 -38 -1 0 -5 7 -10 15 -10 8 0 15 -5 15 -11 0 -7 -11 -8 -30 -4
-19 4 -36 2 -45 -5 -8 -7 -22 -9 -31 -6 -9 4 -22 2 -28 -3 -23 -18 -325 -64
-358 -55 -10 3 -18 1 -18 -5 0 -6 -20 -11 -44 -11 -25 0 -47 -4 -51 -9 -3 -6
-22 -10 -43 -11 -20 0 -50 -2 -67 -4 -16 -1 -46 -4 -65 -5 -19 -2 -28 -5 -20
-8 43 -14 44 -16 15 -23 -28 -7 -29 -8 -8 -15 35 -11 16 -26 -24 -19 -26 5
-34 4 -29 -5 4 -6 27 -11 52 -11 24 0 44 -4 44 -8 0 -10 50 -7 119 7 29 6 71
8 92 5 31 -5 44 -2 60 12 15 14 22 15 28 6 5 -8 28 -12 64 -11 61 2 61 2 60
72 0 11 5 16 14 12 8 -3 17 -5 19 -5 2 0 4 -11 4 -24 0 -32 17 -42 38 -22 11
9 27 13 40 9 16 -4 22 -1 22 10 0 8 6 18 13 20 10 4 10 6 0 6 -7 1 -13 6 -13
11 0 13 91 13 126 0 20 -8 29 -8 35 1 14 23 29 0 17 -27 -8 -18 -14 -21 -19
-12 -7 10 -12 11 -29 1 -11 -7 -27 -13 -35 -13 -8 0 -15 -5 -15 -11 0 -6 -11
-8 -29 -4 -16 3 -47 -1 -72 -9 -24 -9 -60 -16 -80 -16 -20 0 -42 -7 -49 -15
-7 -8 -25 -15 -41 -15 -16 0 -29 -4 -29 -10 0 -5 -4 -10 -10 -10 -5 0 -10 7
-10 15 0 8 -4 15 -10 15 -5 0 -7 -7 -4 -15 4 -8 -1 -17 -9 -21 -35 -13 -141
-31 -168 -28 -17 2 -29 -1 -29 -8 0 -7 -7 -3 -16 8 -13 16 -15 16 -10 2 6 -19
-9 -25 -19 -8 -10 16 -25 12 -19 -5 4 -10 0 -15 -15 -15 -13 0 -18 -5 -15 -13
3 -8 18 -12 42 -9 29 3 34 1 22 -8 -12 -9 -8 -11 18 -6 17 3 32 2 32 -2 0 -5
33 -7 73 -5 58 4 76 1 86 -11 8 -9 30 -16 50 -17 20 0 30 -3 24 -6 -25 -10
-14 -52 17 -68 36 -19 40 -19 40 0 0 19 20 19 47 0 19 -13 29 -13 85 0 65 15
195 18 238 6 14 -4 36 -3 50 2 45 17 90 25 90 16 0 -5 14 -9 31 -9 16 0 28 4
24 9 -3 5 -1 12 4 16 5 3 14 -2 19 -11 11 -19 78 -25 75 -6 -2 7 7 12 21 12
13 0 26 5 28 12 3 8 49 11 155 10 133 0 162 3 244 26 56 15 126 26 173 28 43
1 82 7 85 13 4 6 19 8 34 6 15 -3 43 1 63 10 20 8 51 15 68 15 17 0 38 4 46
10 8 5 19 5 25 1 16 -13 243 -22 251 -10 3 6 -3 19 -15 30 -12 11 -21 25 -21
32 0 7 3 8 8 2 14 -19 52 -35 84 -35 42 0 79 10 73 19 -2 4 17 5 43 1 63 -7
163 0 156 11 -8 14 6 10 22 -6 24 -24 69 -24 189 -1 44 9 96 16 116 16 20 0
53 7 73 15 20 8 36 12 37 8 0 -5 4 1 9 12 8 19 9 19 9 1 1 -14 6 -17 24 -12
12 4 52 14 90 24 67 16 82 27 50 35 -14 4 -13 5 4 6 12 0 29 -7 39 -16 13 -13
19 -14 22 -5 2 6 13 12 25 13 16 1 13 3 -11 10 -19 6 -30 14 -26 20 4 8 9 8
13 1 7 -12 77 -27 106 -23 16 3 17 1 6 -13 -10 -12 -17 -14 -27 -5 -8 6 -22 8
-31 4 -15 -6 -13 -9 12 -17 17 -5 49 -11 73 -13 35 -3 42 -1 42 14 0 27 10 31
36 14 15 -9 24 -11 24 -4 0 6 -6 11 -12 12 -7 0 -4 4 7 8 17 7 15 9 -14 16
-18 4 -36 3 -40 -2 -9 -13 -51 -14 -51 -1 0 6 9 8 20 5 11 -3 20 -1 20 3 0 5
26 11 58 15 31 4 89 12 129 19 49 9 75 10 82 3 13 -13 309 7 324 22 14 14 80
14 93 1 8 -8 19 -8 38 0 15 5 65 10 110 10 116 0 178 10 172 26 -4 10 5 12 34
9 22 -2 40 1 40 6 0 5 12 9 26 9 17 0 23 -4 18 -12 -5 -10 -4 -10 6 -1 7 7 25
9 42 6 26 -5 40 -1 98 27 8 3 28 3 44 -1 16 -5 37 -4 47 1 12 7 19 6 21 -2 6
-18 113 -17 223 3 116 20 132 25 162 55 15 15 40 24 84 29 41 5 57 10 48 16
-9 6 5 9 39 9 36 0 59 5 70 16 15 15 14 18 -7 35 -27 22 -57 25 -63 7 -4 -10
-13 -9 -39 4 -19 9 -42 19 -52 22 -15 5 -16 9 -7 26 6 11 18 20 26 20 11 0 14
6 10 16 -3 9 -6 18 -6 20 0 2 -5 4 -11 4 -5 0 -7 -4 -4 -10 8 -12 -13 -12 -40
1 -19 9 -18 9 3 5 12 -2 22 0 22 5 0 5 -10 9 -23 9 -12 0 -32 7 -44 15 -16 11
-24 12 -29 4 -5 -8 -3 -9 6 -4 8 5 11 3 8 -6 -3 -9 -27 -17 -64 -21 -67 -8
-106 -2 -83 13 11 7 9 10 -8 15 -13 4 -23 10 -23 14 0 10 39 19 70 15 14 -1
35 6 47 18 18 16 31 19 70 13 29 -3 42 -2 34 3 -11 7 -11 10 0 15 8 3 -8 3
-36 -1 -27 -3 -67 -6 -88 -5 -20 2 -47 -3 -59 -9 -17 -9 -24 -9 -32 3 -13 18
-92 32 -101 18 -3 -5 -32 -10 -63 -10 -31 0 -73 -5 -92 -10 -45 -13 -109 -20
-127 -13 -8 3 -11 13 -8 24 4 11 4 19 1 19 -3 0 -6 -4 -6 -8z m-135 -92 c3 -6
-1 -13 -10 -16 -19 -8 -30 0 -20 15 8 14 22 14 30 1z m175 -9 c0 -5 -9 -11
-20 -14 -20 -5 -26 3 -13 16 9 10 33 8 33 -2z m81 -24 c-8 -8 -11 -7 -11 4 0
20 13 34 18 19 3 -7 -1 -17 -7 -23z m103 -5 c-5 -7 -64 10 -64 18 0 15 34 15
51 0 8 -8 14 -17 13 -18z m-293 13 c0 -13 -41 -19 -41 -7 0 11 20 22 33 18 5
-1 8 -6 8 -11z m669 11 c0 -2 -7 -6 -15 -10 -8 -3 -15 -1 -15 4 0 6 7 10 15
10 8 0 15 -2 15 -4z m-280 -22 c0 -8 -4 -12 -10 -9 -5 3 -10 10 -10 16 0 5 5
9 10 9 6 0 10 -7 10 -16z m-1433 -75 c-6 -10 -21 -19 -32 -18 -18 0 -19 1 -2
8 10 4 18 10 18 14 -3 21 0 26 14 21 11 -5 12 -10 2 -25z m-187 -19 c26 -26
25 -27 -9 -22 -22 3 -29 9 -28 23 2 24 12 24 37 -1z m100 16 c0 -2 -9 -6 -20
-9 -11 -3 -20 -1 -20 4 0 5 9 9 20 9 11 0 20 -2 20 -4z m-1274 -18 c4 -6 3 -8
-4 -4 -5 3 -13 0 -15 -6 -3 -8 -6 -6 -6 5 -1 19 14 23 25 5z m154 2 c0 -5 -2
-10 -4 -10 -3 0 -8 5 -11 10 -3 6 -1 10 4 10 6 0 11 -4 11 -10z m120 -70 c0
-5 -10 -10 -22 -9 -22 0 -22 1 -3 9 11 5 21 9 23 9 1 1 2 -3 2 -9z m-620 -4
c0 -2 -7 -9 -15 -16 -12 -10 -15 -10 -15 4 0 9 7 16 15 16 8 0 15 -2 15 -4z
m673 -3 c-7 -2 -19 -2 -25 0 -7 3 -2 5 12 5 14 0 19 -2 13 -5z m-793 -47 c0
-3 -4 -8 -10 -11 -5 -3 -10 -1 -10 4 0 6 5 11 10 11 6 0 10 -2 10 -4z m210
-26 c8 -5 12 -11 9 -14 -3 -3 -14 1 -25 9 -21 16 -8 20 16 5z m-50 -20 c0 -5
-4 -10 -10 -10 -5 0 -10 5 -10 10 0 6 5 10 10 10 6 0 10 -4 10 -10z m-195 -30
c-3 -5 -15 -10 -26 -10 -10 0 -19 5 -19 10 0 6 12 10 26 10 14 0 23 -4 19 -10z
m70 0 c-3 -5 -12 -10 -20 -10 -8 0 -17 5 -20 10 -4 6 5 10 20 10 15 0 24 -4
20 -10z m-360 -11 c4 -6 4 -13 0 -17 -3 -3 -10 0 -14 7 -6 9 -11 10 -15 2 -4
-6 -12 -9 -17 -5 -5 3 -7 10 -4 15 8 12 42 11 50 -2z m90 1 c-3 -5 -10 -10
-16 -10 -5 0 -9 5 -9 10 0 6 7 10 16 10 8 0 12 -4 9 -10z m-371 -26 c20 -8 11
-24 -15 -24 -19 0 -25 11 -12 23 8 8 8 8 27 1z m169 -19 c1 -5 -6 -11 -15 -13
-11 -2 -18 3 -18 13 0 17 30 18 33 0z m-203 -25 c0 -12 -8 -12 -35 0 -18 8
-17 9 8 9 15 1 27 -3 27 -9z m2337 -26 c-3 -3 -12 -4 -19 -1 -8 3 -5 6 6 6 11
1 17 -2 13 -5z m-2864 -11 c-7 -2 -19 -2 -25 0 -7 3 -2 5 12 5 14 0 19 -2 13
-5z m250 -13 c-3 -11 -9 -20 -14 -20 -5 0 -9 9 -9 20 0 11 6 20 14 20 9 0 12
-7 9 -20z m77 13 c-14 -3 -29 -9 -34 -14 -15 -14 -26 -11 -26 6 0 11 11 15 43
14 27 -1 33 -3 17 -6z m-460 -23 c0 -5 -4 -10 -10 -10 -5 0 -10 5 -10 10 0 6
5 10 10 10 6 0 10 -4 10 -10z m2557 4 c-3 -3 -12 -4 -19 -1 -8 3 -5 6 6 6 11
1 17 -2 13 -5z m-80 -20 c-3 -3 -12 -4 -19 -1 -8 3 -5 6 6 6 11 1 17 -2 13 -5z
m-2532 -14 c-3 -5 -10 -10 -16 -10 -5 0 -9 5 -9 10 0 6 7 10 16 10 8 0 12 -4
9 -10z m-96 -16 c9 -8 -45 -2 -64 6 -14 7 -8 8 20 3 22 -3 42 -7 44 -9z m1888
-80 c-3 -3 -12 -4 -19 -1 -8 3 -5 6 6 6 11 1 17 -2 13 -5z m90 0 c-3 -3 -12
-4 -19 -1 -8 3 -5 6 6 6 11 1 17 -2 13 -5z m-1850 -90 c-3 -3 -12 -4 -19 -1
-8 3 -5 6 6 6 11 1 17 -2 13 -5z m43 -4 c0 -5 -4 -10 -9 -10 -6 0 -13 5 -16
10 -3 6 1 10 9 10 9 0 16 -4 16 -10z"/>
<path d="M5488 2923 c6 -2 18 -2 25 0 6 3 1 5 -13 5 -14 0 -19 -2 -12 -5z"/>
<path d="M3920 2910 c0 -5 5 -10 10 -10 6 0 10 5 10 10 0 6 -4 10 -10 10 -5 0
-10 -4 -10 -10z"/>
<path d="M5095 2870 c3 -5 8 -10 11 -10 2 0 4 5 4 10 0 6 -5 10 -11 10 -5 0
-7 -4 -4 -10z"/>
<path d="M2276 2822 c-3 -5 1 -9 9 -9 8 0 15 4 15 9 0 4 -4 8 -9 8 -6 0 -12
-4 -15 -8z"/>
<path d="M4270 2809 c-14 -6 -80 -10 -147 -10 -85 1 -123 -3 -123 -10 0 -8
-13 -9 -40 -5 -29 4 -40 3 -41 -6 0 -7 -5 -4 -10 7 -8 17 -9 15 -6 -11 3 -33
-11 -38 -48 -16 -19 11 -19 11 3 12 12 0 22 4 22 10 0 13 -43 7 -47 -7 -4 -12
89 -113 105 -113 6 0 12 -4 12 -9 0 -13 39 -25 68 -22 14 2 22 -2 20 -11 -4
-20 108 -23 153 -4 28 12 38 23 43 48 6 29 8 31 17 15 8 -13 7 -22 -1 -33 -23
-27 0 -14 31 19 37 37 59 85 59 124 0 32 -25 39 -70 22z m-110 -95 c0 -8 -4
-12 -10 -9 -5 3 -10 10 -10 16 0 5 5 9 10 9 6 0 10 -7 10 -16z m-175 -14 c3
-5 1 -10 -4 -10 -6 0 -11 5 -11 10 0 6 2 10 4 10 3 0 8 -4 11 -10z m155 -14
c0 -8 -4 -18 -10 -21 -5 -3 -10 3 -10 14 0 12 5 21 10 21 6 0 10 -6 10 -14z
m145 4 c3 -5 -1 -10 -9 -10 -9 0 -16 5 -16 10 0 6 4 10 9 10 6 0 13 -4 16 -10z
m-265 -19 c0 -5 -7 -11 -15 -15 -15 -5 -20 5 -8 17 9 10 23 9 23 -2z m143 -48
c-7 -2 -19 -2 -25 0 -7 3 -2 5 12 5 14 0 19 -2 13 -5z"/>
<path d="M6713 2803 c9 -2 25 -2 35 0 9 3 1 5 -18 5 -19 0 -27 -2 -17 -5z"/>
<path d="M6633 2793 c9 -2 23 -2 30 0 6 3 -1 5 -18 5 -16 0 -22 -2 -12 -5z"/>
<path d="M1857 2736 c-4 -10 -5 -21 -2 -24 9 -9 17 6 13 25 -3 17 -4 17 -11
-1z"/>
<path d="M3658 2743 c7 -3 16 -2 19 1 4 3 -2 6 -13 5 -11 0 -14 -3 -6 -6z"/>
<path d="M1574 2728 c-5 -8 -2 -9 11 -5 9 4 24 2 31 -4 12 -10 13 -9 8 5 -7
19 -39 22 -50 4z"/>
<path d="M3110 2730 c0 -5 5 -10 11 -10 5 0 7 5 4 10 -3 6 -8 10 -11 10 -2 0
-4 -4 -4 -10z"/>
<path d="M1340 2716 c0 -9 30 -14 35 -6 4 6 -3 10 -14 10 -12 0 -21 -2 -21 -4z"/>
<path d="M1108 2643 c6 -2 18 -2 25 0 6 3 1 5 -13 5 -14 0 -19 -2 -12 -5z"/>
<path d="M1185 2640 c-16 -7 -17 -9 -3 -9 9 -1 20 4 23 9 7 11 7 11 -20 0z"/>
<path d="M2502 2595 c-15 -32 -15 -35 1 -35 6 0 12 13 13 30 1 36 0 37 -14 5z"/>
<path d="M2631 2604 c0 -11 3 -14 6 -6 3 7 2 16 -1 19 -3 4 -6 -2 -5 -13z"/>
<path d="M2105 2530 c-3 -5 3 -10 14 -10 12 0 21 5 21 10 0 6 -6 10 -14 10 -8
0 -18 -4 -21 -10z"/>
<path d="M5610 2450 c0 -5 7 -10 15 -10 8 0 15 5 15 10 0 6 -7 10 -15 10 -8 0
-15 -4 -15 -10z"/>
<path d="M1145 2340 c3 -5 8 -10 11 -10 2 0 4 5 4 10 0 6 -5 10 -11 10 -5 0
-7 -4 -4 -10z"/>
<path d="M1440 2300 c0 -5 5 -10 10 -10 6 0 10 5 10 10 0 6 -4 10 -10 10 -5 0
-10 -4 -10 -10z"/>
<path d="M1175 2280 c3 -5 10 -10 16 -10 5 0 9 5 9 10 0 6 -7 10 -16 10 -8 0
-12 -4 -9 -10z"/>
<path d="M1375 2270 c-3 -5 -1 -10 4 -10 6 0 11 5 11 10 0 6 -2 10 -4 10 -3 0
-8 -4 -11 -10z"/>
<path d="M1135 2260 c3 -5 10 -10 16 -10 5 0 9 5 9 10 0 6 -7 10 -16 10 -8 0
-12 -4 -9 -10z"/>
</g>
</svg>
